<svg width="1982" height="578" viewBox="0 0 1982 578" fill="none" xmlns="http://www.w3.org/2000/svg">
<path d="M0.000179715 7.05555C0.000584073 -23.9444 36.0002 55.5556 64.5 84.0556C92.9998 112.556 172.5 84.0556 226.5 84.0556C280.5 84.0556 314 151.056 314 151.056C314 151.056 327 210.056 363 228.056C399 246.056 404 182.056 437.5 166.556C471 151.056 517 138.556 561 166.556C605 194.556 641.5 220.056 669.5 264.056C697.5 308.056 693 369.556 775 369.556C857 369.556 890.5 310.556 890.5 310.556C890.5 310.556 980.5 228.056 1027 228.056C1073.5 228.056 1024.5 228.056 1058 228.056C1091.5 228.056 1156 231.056 1197 290.056C1238 349.056 1248 367.556 1248 367.556C1248 367.556 1310 436.556 1354 398.056C1398 359.556 1382 331.056 1382 331.056C1382 331.056 1369.5 282.056 1426 246.056C1482.5 210.056 1544 264.056 1544 264.056C1544 264.056 1569.5 315.556 1631.5 331.056C1693.5 346.556 1721.5 290.056 1721.5 290.056C1721.5 290.056 1732 238.556 1745 194.556C1758 150.556 1763 151.056 1788.5 122.556C1814 94.0556 1842 67.0555 1891 67.0555C1940 67.0555 1981.5 106.556 1981.5 106.556V151.056V573.056H0.000179715C0.000179715 573.056 -0.000224643 38.0555 0.000179715 7.05555Z" fill="white" fill-opacity="0.6"/>
<path d="M0.000162846 319.93C0.000564347 301.336 106.832 267.597 135.131 284.692C163.429 301.786 173.764 319.93 227.382 319.93C281 319.93 314.263 343.023 314.263 343.023C314.263 343.023 335.115 360.268 370.861 371.065C406.606 381.861 449.799 380.362 483.062 371.065C516.325 361.768 557.036 354.27 600.725 371.065C644.414 387.859 657.322 398.206 685.124 424.598C712.926 450.989 702.997 473.033 784.417 473.033C865.838 473.033 914.988 432.845 914.988 432.845C914.988 432.845 1028.68 377.213 1074.85 377.213C1041.59 377.213 1121.02 377.213 1074.85 377.213C1108.11 377.213 1160.33 372.864 1201.04 408.253C1241.75 443.642 1241.75 455.938 1241.75 455.938C1241.75 455.938 1297.76 504.973 1341.45 481.88C1385.14 458.787 1410.46 444.692 1410.46 444.692C1410.46 444.692 1403.01 446.191 1459.11 424.598C1515.22 403.004 1563.87 424.598 1563.87 424.598C1563.87 424.598 1570.91 423.548 1632.47 432.845C1694.04 442.142 1721.84 408.253 1721.84 408.253C1721.84 408.253 1724.72 409.602 1737.63 383.211C1750.54 356.819 1794.23 368.066 1819.55 350.971C1844.87 333.876 1860.26 324.879 1908.91 324.879C1957.57 324.879 1980 383.211 1980 383.211V424.598V578H0.00024415C0.00024415 578 -0.000238654 338.525 0.000162846 319.93Z" fill="white" fill-opacity="0.6"/>
</svg>
