<svg width="264" height="207" viewBox="0 0 264 207" fill="none" xmlns="http://www.w3.org/2000/svg">
<path d="M210.791 42.1999H0L46.9339 78.8937L164.68 170.95L210.791 207V42.1999Z" fill="#BBC1F5" fill-opacity="0.53"/>
<path d="M158.093 1H52.6978L99.6316 37.6938L101.589 39.2237M158.093 1H263.488V83.4001M158.093 1L143.721 10.7223M76.6512 56.0931L89.1199 47.6584M196.419 144.721L205.663 136.269M263.488 83.4001V165.8L217.378 129.75L214.907 127.818M263.488 83.4001L251.512 94.3502M241.93 103.11L232.349 111.87M222.618 120.768L214.907 127.818M214.907 127.818L101.589 39.2237M131.744 18.8242L119.768 26.9261M110.186 33.4077L101.589 39.2237" stroke="black"/>
<path d="M263.488 1L93.4185 130.349" stroke="black"/>
</svg>
